<svg width="153" height="20" viewBox="0 0 153 20" fill="none" xmlns="http://www.w3.org/2000/svg">
<path d="M93.8044 6.47912H110.143V3.27832H93.8044V6.47912Z" fill="#F24B4B"/>
<path fill-rule="evenodd" clip-rule="evenodd" d="M27.566 16.564H23.5871V8.3161C23.5871 8.18003 23.5262 8.06251 23.4045 7.96355C23.2891 7.85841 23.1802 7.80583 23.0777 7.80583C22.7958 7.80583 22.5971 7.92644 22.4818 8.16766L17.7052 16.564H13.9377L9.0169 8.13055C8.99127 8.0254 8.93681 7.93263 8.85352 7.85222C8.77022 7.77181 8.68052 7.71306 8.58441 7.67594C8.49471 7.63265 8.42423 7.611 8.37297 7.611C8.25123 7.611 8.14231 7.67285 8.0462 7.79655C7.95009 7.92026 7.90203 8.05014 7.90203 8.18622V16.564H4V6.3214C4 5.8266 4.12494 5.37199 4.37483 4.95759C4.62471 4.537 4.93867 4.18445 5.3167 3.89993C5.69473 3.61542 6.09518 3.39585 6.51806 3.24122C6.94094 3.08041 7.30936 3 7.62332 3C8.52034 3 9.26999 3.22266 9.87227 3.66799C10.481 4.10714 11.1153 4.86481 11.7752 5.94102L15.7157 12.7972L19.7715 5.92247C20.2969 4.96996 20.8704 4.2463 21.4919 3.75149C22.1134 3.2505 22.8823 3 23.7985 3C24.3367 3 24.8397 3.10205 25.3074 3.30616C25.7816 3.51027 26.1884 3.78551 26.528 4.13188C26.8676 4.47824 27.1239 4.85863 27.2969 5.27303C27.4763 5.68743 27.566 6.08946 27.566 6.47913V16.564ZM33.8419 16.5825H45.1828V13.4466H34.8607C34.5659 13.4466 34.2584 13.3477 33.938 13.1498C33.6241 12.9518 33.4671 12.723 33.4671 12.4632V11.3963H44.808V8.39032H33.3902V7.61099C33.3902 7.38833 33.4607 7.17804 33.6016 6.98011C33.749 6.78219 33.9316 6.62447 34.1495 6.50695C34.3737 6.38325 34.6108 6.3214 34.8607 6.3214H44.8849V3.27832H33.6209C33.1595 3.27832 32.6021 3.46388 31.9486 3.83498C31.3014 4.1999 30.7408 4.66997 30.2667 5.24519C29.7989 5.8204 29.5651 6.39562 29.5651 6.97083V12.5374C29.5651 13.1065 29.7509 13.7064 30.1225 14.3373C30.5005 14.9682 31.0163 15.5001 31.6699 15.9331C32.3298 16.366 33.0538 16.5825 33.8419 16.5825ZM64.693 13.0292C64.693 13.6477 64.4623 14.2291 64.001 14.7734C63.5461 15.3176 63.0015 15.7568 62.3671 16.0908C61.7328 16.4186 61.1914 16.5825 60.7429 16.5825H47.2011V8.39032H51.1704V13.3168H58.4363C59.2116 13.3168 59.7882 13.1096 60.1662 12.6952C60.5507 12.2746 60.7429 11.7457 60.7429 11.1087V8.40887C60.7301 8.01303 60.6308 7.66666 60.445 7.36977C60.2656 7.0667 59.9932 6.82858 59.628 6.65539C59.2692 6.48221 58.8271 6.39562 58.3017 6.39562H47.1146V3.27832H60.5026C61.2907 3.27832 62.0051 3.4948 62.6459 3.92776C63.293 4.36072 63.796 4.88336 64.1548 5.49569C64.5136 6.10183 64.693 6.64302 64.693 7.11928V13.0292ZM66.9996 16.5639H70.9593V3.27832H66.9996V16.5639ZM91.767 16.5825H87.6343V15.6547C87.5253 15.8836 87.3075 16.097 86.9807 16.2949C86.6539 16.4866 86.3592 16.5825 86.0965 16.5825H74.8998C74.5986 16.5825 74.2943 16.5083 73.9867 16.3598C73.6856 16.2052 73.4389 15.9918 73.2467 15.7197C73.0545 15.4475 72.9552 15.1414 72.9488 14.8012C72.9424 14.1456 72.9328 13.3168 72.9199 12.3148C72.9135 11.3128 72.9103 10.784 72.9103 10.7283C72.9103 9.97989 73.1154 9.39231 73.5254 8.96553C73.9419 8.53258 74.4256 8.3161 74.9767 8.3161H85.5679C86.0549 8.3161 86.4809 8.43671 86.8462 8.67793C87.2114 8.91914 87.4741 9.16036 87.6343 9.40158V8.18621C87.6343 7.93262 87.5542 7.67594 87.394 7.41616C87.2402 7.1502 87.0192 6.93063 86.7308 6.75745C86.4425 6.58427 86.1061 6.49767 85.7217 6.49767H73.0449V3.27832H87.3363C87.9386 3.27832 88.5089 3.42058 89.0471 3.7051C89.5853 3.98961 90.0594 4.36072 90.4695 4.81842C90.8795 5.26993 91.1967 5.74 91.421 6.22862C91.6516 6.71725 91.767 7.1533 91.767 7.53677V16.5825ZM86.8462 12.4447C86.8462 12.2777 86.7821 12.1261 86.654 11.9901C86.5258 11.8478 86.3656 11.7365 86.1734 11.6561C85.9876 11.5695 85.837 11.5262 85.7217 11.5262H77.908C77.5492 11.5262 77.2993 11.6437 77.1583 11.8787C77.0174 12.1138 76.9469 12.2962 76.9469 12.4261C76.9469 12.6982 77.0366 12.9178 77.216 13.0848C77.4018 13.2518 77.5876 13.3353 77.7734 13.3353H85.9427C86.1221 13.3353 86.3176 13.2456 86.529 13.0663C86.7404 12.8807 86.8462 12.6735 86.8462 12.4447ZM116.611 16.5825H127.952V13.4466H117.63C117.335 13.4466 117.028 13.3477 116.707 13.1498C116.393 12.9518 116.236 12.723 116.236 12.4632V11.3963H127.577V8.39032H116.159V7.61099C116.159 7.38833 116.23 7.17804 116.371 6.98011C116.518 6.78219 116.701 6.62447 116.919 6.50695C117.143 6.38325 117.38 6.3214 117.63 6.3214H127.654V3.27832H116.39C115.929 3.27832 115.371 3.46388 114.718 3.83498C114.071 4.1999 113.51 4.66997 113.036 5.24519C112.568 5.8204 112.334 6.39562 112.334 6.97083V12.5374C112.334 13.1065 112.52 13.7064 112.892 14.3373C113.27 14.9682 113.786 15.5001 114.439 15.9331C115.099 16.366 115.823 16.5825 116.611 16.5825ZM93.372 16.5825H110.595V13.2982H100.071L107.529 8.47382H100.878L93.372 13.5765V16.5825ZM148.625 15.0424C148.875 14.5167 149 14.0621 149 13.6786V3.27833H145.04V11.8509C145.04 12.0921 145.011 12.2808 144.954 12.4168C144.903 12.5467 144.762 12.6117 144.531 12.6117C144.332 12.6117 144.159 12.5746 144.012 12.5003C143.865 12.4199 143.685 12.2406 143.474 11.9622L136.736 4.30815C136.442 3.98653 136.051 3.68964 135.564 3.4175C135.083 3.13917 134.417 3 133.565 3C132.892 3 132.315 3.12061 131.835 3.36183C131.361 3.59686 130.98 3.88756 130.691 4.23393C130.403 4.57411 130.195 4.90501 130.066 5.22664C129.945 5.54208 129.884 5.79258 129.884 5.97813V16.564H133.786V7.444C133.786 7.28319 133.85 7.15949 133.978 7.0729C134.106 6.98012 134.231 6.93373 134.353 6.93373C134.539 6.93373 134.693 6.97393 134.814 7.05434C134.942 7.12856 135.112 7.30175 135.324 7.57389L142.013 15.3671C142.493 15.9918 142.945 16.4186 143.368 16.6474C143.791 16.8825 144.441 17 145.319 17C146.171 17 146.873 16.8052 147.424 16.4155C147.981 16.0197 148.382 15.562 148.625 15.0424Z" fill="#006580"/>
</svg>
