<svg width="216" height="52" viewBox="0 0 216 52" fill="none" xmlns="http://www.w3.org/2000/svg">
<path d="M59.1518 20.8772C59.3589 21.9955 59.39 22.9896 59.245 23.8594C59.1001 24.7292 58.9137 25.4645 58.6859 26.065C58.3959 26.7692 58.0438 27.3801 57.6296 27.8979C58.3752 28.5399 58.9654 29.1612 59.4004 29.7618C59.856 30.3417 60.1873 30.8905 60.3944 31.4083C60.6015 31.926 60.7051 32.4127 60.7051 32.8683C60.7258 33.3032 60.6947 33.7071 60.6119 34.0799C60.3841 34.9497 59.8767 35.7367 59.0897 36.4408C58.3234 37.0621 57.5779 37.3831 56.853 37.4038C56.1489 37.4246 55.4861 37.2692 54.8648 36.9379C54.2642 36.5858 53.7154 36.1198 53.2184 35.5399C52.7213 34.9601 52.2864 34.3905 51.9136 33.8313C51.5616 33.2515 51.282 32.7441 51.0749 32.3092C50.8678 31.8535 50.7539 31.5947 50.7332 31.5325C50.8367 32.1952 50.8574 32.7958 50.7953 33.3343C50.7539 33.8521 50.6607 34.3077 50.5157 34.7012C50.3915 35.0947 50.2154 35.4364 49.9876 35.7263C49.7805 35.9956 49.5527 36.2234 49.3042 36.4098C48.745 36.8654 48.0719 37.145 47.2849 37.2485C46.2494 37.3935 45.39 37.2796 44.7065 36.9068C44.0231 36.5133 43.4846 36.068 43.0911 35.571C42.6148 34.9911 42.2627 34.3077 42.0349 33.5207C41.4965 31.6982 41.1858 30.0414 41.103 28.5503C41.0201 27.0384 41.0305 25.7233 41.134 24.605C41.2583 23.321 41.4861 22.1508 41.8175 21.0946C42.0246 20.2455 42.3145 19.5103 42.6873 18.889C43.0601 18.2677 43.4743 17.7292 43.9299 17.2736C44.4062 16.818 44.9033 16.4452 45.421 16.1553C45.9388 15.8653 46.4462 15.6375 46.9432 15.4718C48.1237 15.0783 49.387 14.9126 50.7332 14.9748C51.6444 14.9748 52.4625 15.068 53.1873 15.2544C53.9122 15.42 54.5542 15.6479 55.1134 15.9378C55.6932 16.207 56.1903 16.5177 56.6045 16.8698C57.0394 17.2011 57.4018 17.5532 57.6918 17.926C58.3752 18.7751 58.8619 19.7588 59.1518 20.8772ZM50.7332 23.0207C50.3811 23.0207 50.0704 23.1553 49.8012 23.4245C49.5527 23.6937 49.4491 23.994 49.4906 24.3254C49.532 24.7603 49.6562 25.0606 49.8633 25.2263C50.0912 25.392 50.3811 25.4748 50.7332 25.4748C51.0852 25.4748 51.3752 25.3713 51.603 25.1642C51.8308 24.9571 51.9447 24.6775 51.9447 24.3254C51.9447 23.994 51.8412 23.6937 51.6341 23.4245C51.427 23.1553 51.1267 23.0207 50.7332 23.0207Z" fill="#FFC830"/>
<path d="M73.5814 33.5781C73.3329 34.0285 73.0378 34.4246 72.696 34.7663C72.3699 35.0925 72.0514 35.3643 71.7408 35.5818C71.3835 35.8458 71.0185 36.0555 70.6457 36.2109C70.3351 36.3351 70.0322 36.4283 69.7371 36.4905C69.4575 36.5681 69.209 36.6225 68.9915 36.6535C68.7275 36.7001 68.4945 36.7234 68.2926 36.7234C67.4383 36.7234 66.6849 36.638 66.0326 36.4672C65.3957 36.2963 64.8366 36.0788 64.355 35.8148C63.8735 35.5352 63.4619 35.2168 63.1202 34.8595C62.794 34.5023 62.53 34.1373 62.328 33.7645C61.8155 32.9102 61.5359 31.9239 61.4893 30.8055C61.4893 29.9046 61.5825 29.128 61.7689 28.4756C61.9708 27.8077 62.2271 27.2408 62.5377 26.7748C62.8639 26.2933 63.2289 25.8972 63.6328 25.5866C64.0522 25.2759 64.4715 25.0274 64.8909 24.841C65.885 24.4061 67.0189 24.2119 68.2926 24.2585C69.0381 24.2585 69.6983 24.344 70.273 24.5148C70.8477 24.6857 71.3447 24.9109 71.7641 25.1905C72.199 25.4701 72.5563 25.7885 72.8358 26.1457C73.131 26.4875 73.3717 26.8447 73.5581 27.2175C73.993 28.0718 74.2415 29.0503 74.3037 30.1532C74.3037 30.8832 74.2338 31.5278 74.094 32.087C73.9697 32.6461 73.7989 33.1432 73.5814 33.5781ZM68.1528 29.8969C67.8887 29.8969 67.6557 29.9978 67.4538 30.1997C67.2674 30.4017 67.1897 30.6269 67.2208 30.8754C67.2519 31.2016 67.3451 31.4268 67.5004 31.5511C67.6713 31.6753 67.8887 31.7375 68.1528 31.7375C68.4168 31.7375 68.6343 31.6598 68.8051 31.5045C68.976 31.3492 69.0614 31.1395 69.0614 30.8754C69.0614 30.6269 68.9838 30.4017 68.8284 30.1997C68.6731 29.9978 68.4479 29.8969 68.1528 29.8969Z" fill="#FFC830"/>
<path d="M82.9468 29.6406C82.6361 29.5474 82.3643 29.5085 82.1313 29.5241C81.9139 29.5396 81.7197 29.6017 81.5488 29.7105C81.3935 29.8192 81.3159 30.0211 81.3159 30.3162C81.3314 30.5337 81.4013 30.7046 81.5255 30.8288C81.6343 30.9375 81.7974 31.0152 82.0148 31.0618C82.2323 31.0929 82.5507 31.023 82.9701 30.8521C83.4205 30.6813 83.8632 30.5958 84.2981 30.5958C84.6709 30.6114 85.067 30.7123 85.4864 30.8987C85.9057 31.0851 86.2863 31.4501 86.628 31.9938C86.8144 32.3976 86.9076 32.8015 86.9076 33.2053C86.9076 33.5626 86.8144 33.9586 86.628 34.3936C86.4416 34.8285 86.0533 35.2556 85.4631 35.675C84.8418 36.0944 84.1428 36.3973 83.3662 36.5836C82.6983 36.7545 81.8983 36.8166 80.9664 36.77C80.0344 36.739 79.0015 36.4672 77.8676 35.9546C77.3084 35.675 76.8114 35.2789 76.3765 34.7663C76.0037 34.3314 75.662 33.7567 75.3513 33.0422C75.0407 32.3122 74.8854 31.4113 74.8854 30.3395C74.9009 29.4387 75.0562 28.5921 75.3513 27.8C75.4756 27.4582 75.6387 27.1165 75.8406 26.7748C76.0425 26.4331 76.2911 26.1069 76.5862 25.7963C76.8813 25.4701 77.2308 25.1827 77.6346 24.9342C78.054 24.6701 78.5355 24.4527 79.0792 24.2818C79.8403 24.0644 80.6169 23.9479 81.409 23.9323C82.077 23.9168 82.7992 24.01 83.5758 24.2119C84.368 24.4139 85.1058 24.8255 85.7892 25.4468C85.9912 25.6487 86.1543 25.8895 86.2785 26.169C86.3872 26.4176 86.4571 26.7204 86.4882 27.0777C86.5348 27.4349 86.4727 27.8388 86.3018 28.2892C86.1465 28.631 85.9213 28.9183 85.6261 29.1513C85.3621 29.3532 85.0126 29.5163 84.5777 29.6406C84.1583 29.7648 83.6147 29.7648 82.9468 29.6406Z" fill="#FFC830"/>
<path d="M95.4109 23.6295C96.0011 22.8218 96.5681 22.2781 97.1117 21.9985C97.6709 21.7034 98.1912 21.5559 98.6727 21.5559C99.0145 21.5559 99.3174 21.6102 99.5814 21.719C99.861 21.8277 100.11 21.9442 100.327 22.0684C100.56 22.2238 100.777 22.3869 100.979 22.5577C101.274 22.8684 101.476 23.1868 101.585 23.513C101.709 23.8392 101.772 24.1731 101.772 24.5148C101.772 24.9963 101.671 25.4545 101.469 25.8895C101.282 26.3244 101.08 26.7127 100.863 27.0544C100.583 27.4582 100.28 27.8388 99.9542 28.196C100.389 28.4756 100.816 28.8251 101.236 29.2445C101.655 29.6639 102.02 30.1221 102.331 30.6191C102.641 31.1006 102.89 31.6054 103.076 32.1336C103.278 32.6617 103.379 33.1665 103.379 33.648C103.379 34.0674 103.286 34.4557 103.1 34.8129C102.913 35.1702 102.672 35.4808 102.377 35.7449C102.082 35.9934 101.748 36.1876 101.375 36.3274C101.003 36.4672 100.638 36.537 100.28 36.537C99.7678 36.537 99.2941 36.4128 98.8591 36.1643C98.4398 35.9157 98.0437 35.6051 97.6709 35.2323C97.3136 34.8595 96.9952 34.4557 96.7156 34.0208C96.4361 33.5703 96.1953 33.1509 95.9934 32.7626C95.807 32.3743 95.6594 32.0404 95.5507 31.7608C95.442 31.4812 95.3798 31.3181 95.3643 31.2715C95.3643 31.3026 95.3643 31.3647 95.3643 31.4579C95.3798 31.5511 95.3876 31.6753 95.3876 31.8307C95.3876 32.1879 95.3488 32.6384 95.2711 33.182C95.209 33.7256 95.0614 34.2538 94.8284 34.7663C94.5954 35.2789 94.246 35.7216 93.78 36.0944C93.3295 36.4516 92.7082 36.6302 91.9161 36.6302C91.2637 36.6302 90.7201 36.4749 90.2851 36.1643C89.8502 35.8381 89.5007 35.4886 89.2367 35.1158C88.9726 34.7275 88.7862 34.378 88.6775 34.0674C88.5688 33.7412 88.5144 33.5703 88.5144 33.5548C88.297 32.6694 88.1416 31.7685 88.0485 30.8521C87.9553 29.9357 87.9087 29.0426 87.9087 28.1727C87.9087 27.334 87.932 26.5496 87.9786 25.8196C88.0407 25.074 88.1106 24.4294 88.1882 23.8857C88.2659 23.2489 88.3591 22.6587 88.4678 22.115C88.5455 21.7888 88.6465 21.4394 88.7707 21.0666C88.895 20.6783 89.0736 20.321 89.3066 19.9948C89.5551 19.6686 89.8813 19.3968 90.2851 19.1794C90.689 18.9464 91.2093 18.8299 91.8462 18.8299C92.4519 18.8299 92.9568 18.9464 93.3606 19.1794C93.78 19.4124 94.1217 19.7075 94.3858 20.0647C94.6498 20.4064 94.8517 20.787 94.9915 21.2064C95.1313 21.6102 95.2323 21.9908 95.2944 22.348C95.3565 22.7053 95.3876 23.0082 95.3876 23.2567C95.4031 23.4897 95.4109 23.6139 95.4109 23.6295Z" fill="#FFC830"/>
<path d="M110.449 20.8336C110.48 21.1753 110.433 21.5093 110.309 21.8354C110.2 22.1616 110.029 22.4567 109.796 22.7208C109.579 22.9693 109.307 23.179 108.981 23.3499C108.655 23.5052 108.297 23.6062 107.909 23.6528C107.505 23.6994 107.125 23.6761 106.767 23.5829C106.426 23.4741 106.115 23.3188 105.835 23.1169C105.556 22.915 105.323 22.6742 105.136 22.3946C104.966 22.0995 104.857 21.7733 104.81 21.4161C104.779 21.0743 104.818 20.7482 104.927 20.4375C105.051 20.1113 105.23 19.824 105.463 19.5755C105.696 19.3114 105.975 19.0939 106.301 18.9231C106.628 18.7522 106.985 18.6435 107.373 18.5969C107.761 18.5503 108.126 18.5814 108.468 18.6901C108.825 18.7833 109.144 18.9308 109.423 19.1328C109.703 19.3347 109.936 19.5832 110.122 19.8783C110.309 20.1735 110.418 20.4919 110.449 20.8336ZM111.45 33.9276C111.326 34.6265 111.085 35.1624 110.728 35.5352C110.371 35.8924 110.006 36.1565 109.633 36.3274C109.183 36.5138 108.701 36.6147 108.189 36.6302C107.521 36.6613 106.977 36.5681 106.558 36.3507C106.138 36.1487 105.804 35.9157 105.556 35.6517C105.276 35.3566 105.051 35.0071 104.88 34.6032C104.569 33.7645 104.383 32.9024 104.321 32.0171C104.274 31.1162 104.29 30.2929 104.368 29.5474C104.445 28.6931 104.585 27.8543 104.787 27.0311C104.973 26.3166 105.245 25.7807 105.602 25.4235C105.975 25.0507 106.34 24.7789 106.697 24.608C107.117 24.4216 107.56 24.3207 108.026 24.3051C108.74 24.2741 109.315 24.3983 109.75 24.6779C110.2 24.942 110.557 25.2526 110.821 25.6099C111.116 26.0137 111.334 26.4952 111.474 27.0544C111.582 27.567 111.668 28.165 111.73 28.8484C111.777 29.4387 111.784 30.1609 111.753 31.0152C111.738 31.854 111.637 32.8248 111.45 33.9276Z" fill="#FFC830"/>
<path d="M120.225 31.4579C120.676 31.8151 121.149 32.0404 121.646 32.1336C122.143 32.2112 122.602 32.2811 123.021 32.3432C123.456 32.4054 123.821 32.5219 124.116 32.6927C124.427 32.8636 124.621 33.2208 124.699 33.7645C124.714 34.0751 124.675 34.378 124.582 34.6731C124.489 34.9372 124.326 35.209 124.093 35.4886C123.875 35.7527 123.526 35.9779 123.044 36.1643C122.361 36.3817 121.623 36.5215 120.831 36.5836C120.147 36.6458 119.371 36.6302 118.501 36.537C117.631 36.4594 116.723 36.2264 115.775 35.8381C115.154 35.5585 114.602 35.1624 114.121 34.6498C113.919 34.4324 113.717 34.1839 113.515 33.9043C113.329 33.6092 113.158 33.283 113.002 32.9257C112.863 32.5529 112.746 32.1413 112.653 31.6909C112.575 31.2404 112.552 30.7434 112.583 30.1997C112.63 29.361 112.793 28.5611 113.072 27.8C113.197 27.4738 113.352 27.1476 113.538 26.8214C113.725 26.4797 113.95 26.1535 114.214 25.8429C114.494 25.5322 114.812 25.2449 115.169 24.9808C115.542 24.7167 115.969 24.4993 116.451 24.3284C117.243 24.0954 118.051 23.9712 118.874 23.9556C119.216 23.9556 119.581 23.9789 119.969 24.0255C120.373 24.0566 120.769 24.1343 121.157 24.2585C121.561 24.3673 121.965 24.5304 122.369 24.7478C122.772 24.9653 123.161 25.2371 123.534 25.5633C123.782 25.8118 124 26.0914 124.186 26.402C124.357 26.6816 124.504 27.0233 124.629 27.4272C124.753 27.8155 124.823 28.2815 124.838 28.8251C124.838 29.4309 124.699 29.9279 124.419 30.3162C124.155 30.7046 123.798 30.9997 123.347 31.2016C122.912 31.4035 122.415 31.5278 121.856 31.5744C121.312 31.6054 120.769 31.5666 120.225 31.4579ZM119.619 28.4989C119.355 28.4989 119.122 28.5999 118.92 28.8018C118.734 29.0037 118.656 29.229 118.687 29.4775C118.718 29.8037 118.812 30.0289 118.967 30.1532C119.138 30.2774 119.355 30.3395 119.619 30.3395C119.883 30.3395 120.101 30.2619 120.272 30.1066C120.443 29.9512 120.528 29.7415 120.528 29.4775C120.528 29.229 120.45 29.0037 120.295 28.8018C120.14 28.5999 119.914 28.4989 119.619 28.4989Z" fill="#FFC830"/>
<path d="M126.554 24.1079C125.374 24.1908 124.318 24.1079 123.386 23.8594C122.992 23.7559 122.609 23.6109 122.236 23.4245C121.864 23.2174 121.522 22.9689 121.211 22.6789C120.921 22.3683 120.683 21.9955 120.497 21.5606C120.331 21.1257 120.248 20.6079 120.248 20.0073C120.248 18.9718 120.455 18.1538 120.87 17.5532C121.304 16.9319 121.781 16.4659 122.299 16.1553C122.899 15.7825 123.583 15.5339 124.349 15.4097C126.006 15.0576 127.621 14.8609 129.195 14.8194C130.769 14.7573 132.188 14.7677 133.451 14.8505C134.901 14.9334 136.299 15.0887 137.645 15.3165C138.597 15.5236 139.312 15.8446 139.788 16.2795C140.285 16.7144 140.648 17.1597 140.876 17.6153C141.124 18.1538 141.248 18.7233 141.248 19.3239C141.228 19.9866 141.124 20.5562 140.938 21.0325C140.772 21.5088 140.544 21.923 140.254 22.2751C139.985 22.6065 139.674 22.8757 139.322 23.0828C138.97 23.2899 138.618 23.4556 138.266 23.5798C137.438 23.8491 136.495 23.9423 135.439 23.8594C135.708 25.4334 135.853 26.8313 135.874 28.0532C135.915 29.2544 135.905 30.2796 135.843 31.1287C135.76 32.1228 135.626 32.9719 135.439 33.676C135.232 34.6701 134.89 35.4053 134.414 35.8817C133.958 36.358 133.492 36.7101 133.016 36.9379C132.457 37.1864 131.856 37.3107 131.214 37.3107C130.489 37.3314 129.816 37.2278 129.195 37C128.657 36.7929 128.139 36.4408 127.642 35.9438C127.145 35.4467 126.782 34.6908 126.554 33.676C126.327 32.6198 126.192 31.5325 126.151 30.4142C126.13 29.2751 126.151 28.2396 126.213 27.3077C126.296 26.21 126.41 25.1434 126.554 24.1079Z" fill="#FFC830"/>
<path d="M142.496 24.3284C143.319 24.2508 143.995 24.2974 144.523 24.4682C145.051 24.6235 145.463 24.8177 145.758 25.0507C146.069 25.2837 146.286 25.5167 146.41 25.7497C146.535 25.9671 146.605 26.0991 146.62 26.1457C146.62 26.1302 146.659 26.0215 146.737 25.8196C146.83 25.6021 146.977 25.3691 147.179 25.1206C147.381 24.8721 147.653 24.6546 147.995 24.4682C148.337 24.2663 148.764 24.1653 149.276 24.1653C149.711 24.1653 150.092 24.2508 150.418 24.4216C150.744 24.5925 151.031 24.8177 151.28 25.0973C151.528 25.3769 151.738 25.6953 151.909 26.0525C152.08 26.4098 152.22 26.7748 152.328 27.1476C152.592 28.0174 152.74 29.0037 152.771 30.1066C152.818 30.9919 152.802 31.7685 152.724 32.4364C152.647 33.0888 152.53 33.6558 152.375 34.1373C152.235 34.6032 152.064 34.9993 151.862 35.3255C151.66 35.6362 151.451 35.8847 151.233 36.0711C150.721 36.5215 150.123 36.7312 149.439 36.7001C149.02 36.7157 148.624 36.6458 148.251 36.4905C147.94 36.3662 147.638 36.1565 147.342 35.8614C147.047 35.5507 146.861 35.1003 146.783 34.51C146.628 34.976 146.348 35.3721 145.944 35.6983C145.603 35.9779 145.121 36.2186 144.5 36.4206C143.879 36.6225 143.055 36.6613 142.03 36.537C141.192 36.4439 140.446 36.1953 139.794 35.7915C139.514 35.6206 139.234 35.4032 138.955 35.1391C138.691 34.8751 138.45 34.5489 138.233 34.1606C138.031 33.7722 137.868 33.3218 137.743 32.8092C137.619 32.2967 137.557 31.7064 137.557 31.0385C137.526 29.8736 137.673 28.8173 138 27.8699C138.139 27.466 138.326 27.0699 138.559 26.6816C138.792 26.2778 139.087 25.9128 139.444 25.5866C139.801 25.2604 140.228 24.9886 140.726 24.7711C141.223 24.5381 141.813 24.3906 142.496 24.3284ZM145.595 29.8037C145.331 29.8037 145.098 29.9046 144.896 30.1066C144.71 30.3085 144.632 30.5337 144.663 30.7822C144.694 31.1084 144.787 31.3336 144.943 31.4579C145.113 31.5822 145.331 31.6443 145.595 31.6443C145.859 31.6443 146.077 31.5666 146.247 31.4113C146.418 31.256 146.504 31.0463 146.504 30.7822C146.504 30.5337 146.426 30.3085 146.271 30.1066C146.115 29.9046 145.89 29.8037 145.595 29.8037Z" fill="#FFC830"/>
<path d="M153.542 31.5744C153.433 30.689 153.379 29.7648 153.379 28.8018C153.379 27.8233 153.402 26.9146 153.449 26.0758C153.495 25.1128 153.565 24.1653 153.658 23.2334C153.752 22.3791 153.938 21.6102 154.218 20.9268C154.342 20.6472 154.489 20.3676 154.66 20.088C154.847 19.8084 155.064 19.5599 155.313 19.3425C155.561 19.125 155.849 18.9541 156.175 18.8299C156.516 18.6901 156.897 18.6202 157.316 18.6202C157.907 18.6357 158.458 18.8221 158.971 19.1794C159.173 19.3347 159.382 19.5289 159.6 19.7618C159.817 19.9948 160.011 20.29 160.182 20.6472C160.369 21.0045 160.524 21.4238 160.648 21.9053C160.788 22.3869 160.881 22.946 160.928 23.5829C161.021 24.8255 161.068 26.0137 161.068 27.1476C161.068 28.2815 161.052 29.2911 161.021 30.1765C160.974 31.2171 160.904 32.1879 160.811 33.0888C160.734 33.7722 160.555 34.3703 160.275 34.8828C160.151 35.1003 159.996 35.3177 159.809 35.5352C159.639 35.7527 159.421 35.9468 159.157 36.1177C158.908 36.273 158.613 36.3973 158.272 36.4905C157.93 36.5836 157.542 36.6225 157.107 36.6069C156.703 36.5914 156.338 36.506 156.012 36.3507C155.701 36.2109 155.421 36.0245 155.173 35.7915C154.924 35.5585 154.715 35.2944 154.544 34.9993C154.373 34.6887 154.225 34.378 154.101 34.0674C153.822 33.3373 153.635 32.5063 153.542 31.5744Z" fill="#FFC830"/>
<path d="M169.538 23.6295C170.129 22.8218 170.696 22.2781 171.239 21.9985C171.798 21.7034 172.319 21.5559 172.8 21.5559C173.142 21.5559 173.445 21.6102 173.709 21.719C173.988 21.8277 174.237 21.9442 174.454 22.0684C174.687 22.2238 174.905 22.3869 175.107 22.5577C175.402 22.8684 175.604 23.1868 175.713 23.513C175.837 23.8392 175.899 24.1731 175.899 24.5148C175.899 24.9963 175.798 25.4545 175.596 25.8895C175.41 26.3244 175.208 26.7127 174.99 27.0544C174.711 27.4582 174.408 27.8388 174.082 28.196C174.517 28.4756 174.944 28.8251 175.363 29.2445C175.782 29.6639 176.147 30.1221 176.458 30.6191C176.769 31.1006 177.017 31.6054 177.204 32.1336C177.406 32.6617 177.507 33.1665 177.507 33.648C177.507 34.0674 177.413 34.4557 177.227 34.8129C177.041 35.1702 176.8 35.4808 176.505 35.7449C176.21 35.9934 175.876 36.1876 175.503 36.3274C175.13 36.4672 174.765 36.537 174.408 36.537C173.895 36.537 173.421 36.4128 172.987 36.1643C172.567 35.9157 172.171 35.6051 171.798 35.2323C171.441 34.8595 171.123 34.4557 170.843 34.0208C170.563 33.5703 170.323 33.1509 170.121 32.7626C169.934 32.3743 169.787 32.0404 169.678 31.7608C169.569 31.4812 169.507 31.3181 169.492 31.2715C169.492 31.3026 169.492 31.3647 169.492 31.4579C169.507 31.5511 169.515 31.6753 169.515 31.8307C169.515 32.1879 169.476 32.6384 169.399 33.182C169.336 33.7256 169.189 34.2538 168.956 34.7663C168.723 35.2789 168.373 35.7216 167.907 36.0944C167.457 36.4516 166.836 36.6302 166.044 36.6302C165.391 36.6302 164.847 36.4749 164.413 36.1643C163.978 35.8381 163.628 35.4886 163.364 35.1158C163.1 34.7275 162.914 34.378 162.805 34.0674C162.696 33.7412 162.642 33.5703 162.642 33.5548C162.424 32.6694 162.269 31.7685 162.176 30.8521C162.083 29.9357 162.036 29.0426 162.036 28.1727C162.036 27.334 162.059 26.5496 162.106 25.8196C162.168 25.074 162.238 24.4294 162.316 23.8857C162.393 23.2489 162.487 22.6587 162.595 22.115C162.673 21.7888 162.774 21.4394 162.898 21.0666C163.022 20.6783 163.201 20.321 163.434 19.9948C163.683 19.6686 164.009 19.3968 164.413 19.1794C164.816 18.9464 165.337 18.8299 165.974 18.8299C166.579 18.8299 167.084 18.9464 167.488 19.1794C167.907 19.4124 168.249 19.7075 168.513 20.0647C168.777 20.4064 168.979 20.787 169.119 21.2064C169.259 21.6102 169.36 21.9908 169.422 22.348C169.484 22.7053 169.515 23.0082 169.515 23.2567C169.531 23.4897 169.538 23.6139 169.538 23.6295Z" fill="#FFC830"/>
<path d="M184.472 20.8336C184.503 21.1753 184.456 21.5093 184.332 21.8354C184.223 22.1616 184.052 22.4567 183.819 22.7208C183.602 22.9693 183.33 23.179 183.004 23.3499C182.678 23.5052 182.32 23.6062 181.932 23.6528C181.528 23.6994 181.148 23.6761 180.79 23.5829C180.449 23.4741 180.138 23.3188 179.858 23.1169C179.579 22.915 179.346 22.6742 179.159 22.3946C178.989 22.0995 178.88 21.7733 178.833 21.4161C178.802 21.0743 178.841 20.7482 178.95 20.4375C179.074 20.1113 179.253 19.824 179.486 19.5755C179.719 19.3114 179.998 19.0939 180.324 18.9231C180.651 18.7522 181.008 18.6435 181.396 18.5969C181.784 18.5503 182.149 18.5814 182.491 18.6901C182.848 18.7833 183.167 18.9308 183.446 19.1328C183.726 19.3347 183.959 19.5832 184.145 19.8783C184.332 20.1735 184.44 20.4919 184.472 20.8336ZM185.473 33.9276C185.349 34.6265 185.108 35.1624 184.751 35.5352C184.394 35.8924 184.029 36.1565 183.656 36.3274C183.206 36.5138 182.724 36.6147 182.212 36.6302C181.544 36.6613 181 36.5681 180.581 36.3507C180.161 36.1487 179.827 35.9157 179.579 35.6517C179.299 35.3566 179.074 35.0071 178.903 34.6032C178.592 33.7645 178.406 32.9024 178.344 32.0171C178.297 31.1162 178.313 30.2929 178.391 29.5474C178.468 28.6931 178.608 27.8543 178.81 27.0311C178.996 26.3166 179.268 25.7807 179.625 25.4235C179.998 25.0507 180.363 24.7789 180.72 24.608C181.14 24.4216 181.582 24.3207 182.048 24.3051C182.763 24.2741 183.338 24.3983 183.773 24.6779C184.223 24.942 184.58 25.2526 184.844 25.6099C185.139 26.0137 185.357 26.4952 185.497 27.0544C185.605 27.567 185.691 28.165 185.753 28.8484C185.8 29.4387 185.807 30.1609 185.776 31.0152C185.761 31.854 185.66 32.8248 185.473 33.9276Z" fill="#FFC830"/>
<path d="M194.247 31.4579C194.698 31.8151 195.171 32.0404 195.668 32.1336C196.165 32.2112 196.624 32.2811 197.043 32.3432C197.478 32.4054 197.843 32.5219 198.138 32.6927C198.449 32.8636 198.643 33.2208 198.721 33.7645C198.736 34.0751 198.697 34.378 198.604 34.6731C198.511 34.9372 198.348 35.209 198.115 35.4886C197.897 35.7527 197.548 35.9779 197.066 36.1643C196.383 36.3817 195.645 36.5215 194.853 36.5836C194.169 36.6458 193.393 36.6302 192.523 36.537C191.653 36.4594 190.745 36.2264 189.797 35.8381C189.176 35.5585 188.624 35.1624 188.143 34.6498C187.941 34.4324 187.739 34.1839 187.537 33.9043C187.351 33.6092 187.18 33.283 187.024 32.9257C186.885 32.5529 186.768 32.1413 186.675 31.6909C186.597 31.2404 186.574 30.7434 186.605 30.1997C186.652 29.361 186.815 28.5611 187.094 27.8C187.219 27.4738 187.374 27.1476 187.56 26.8214C187.747 26.4797 187.972 26.1535 188.236 25.8429C188.516 25.5322 188.834 25.2449 189.191 24.9808C189.564 24.7167 189.991 24.4993 190.473 24.3284C191.265 24.0954 192.073 23.9712 192.896 23.9556C193.237 23.9556 193.603 23.9789 193.991 24.0255C194.395 24.0566 194.791 24.1343 195.179 24.2585C195.583 24.3673 195.987 24.5304 196.391 24.7478C196.794 24.9653 197.183 25.2371 197.556 25.5633C197.804 25.8118 198.022 26.0914 198.208 26.402C198.379 26.6816 198.526 27.0233 198.651 27.4272C198.775 27.8155 198.845 28.2815 198.86 28.8251C198.86 29.4309 198.721 29.9279 198.441 30.3162C198.177 30.7046 197.82 30.9997 197.369 31.2016C196.934 31.4035 196.437 31.5278 195.878 31.5744C195.334 31.6054 194.791 31.5666 194.247 31.4579ZM193.641 28.4989C193.377 28.4989 193.144 28.5999 192.942 28.8018C192.756 29.0037 192.678 29.229 192.709 29.4775C192.74 29.8037 192.834 30.0289 192.989 30.1532C193.16 30.2774 193.377 30.3395 193.641 30.3395C193.905 30.3395 194.123 30.2619 194.294 30.1066C194.465 29.9512 194.55 29.7415 194.55 29.4775C194.55 29.229 194.472 29.0037 194.317 28.8018C194.162 28.5999 193.936 28.4989 193.641 28.4989Z" fill="#FFC830"/>
<path d="M4.31628 21.6927C2.08381 31.1533 12.0655 41 21.8007 41C31.0054 41 37.9999 34.0279 38 23.5079C38.0001 13.3592 30.9738 7.8962 21.8007 7.08954C10.9362 6.13414 6.38014 12.9467 4.31628 21.6927Z" fill="#FFC830"/>
<path fill-rule="evenodd" clip-rule="evenodd" d="M18.9229 31.2293C18.4584 31.2961 18.0511 31.3109 17.6624 31.0695C17.0154 30.6674 15.7725 28.5693 14.9051 27.0669C14.3338 26.0774 13.3456 24.3657 13.3525 23.3645C13.3546 23.0591 13.5048 22.7748 13.7193 22.4982C13.3073 21.7287 13.0167 21.092 13.0445 20.5579C13.0751 19.9713 13.5223 19.517 14.0499 18.9974C13.9398 18.8139 13.8341 18.6278 13.7257 18.4433C13.1935 17.5378 12.4735 16.3127 13.1068 15.6396C14.1397 14.542 16.4937 15.3009 17.7478 15.7517C20.0021 14.309 22.3024 13.5301 24.889 13.4618C27.7659 13.3858 31.4353 14.3287 32.9512 16.9542C34.4603 19.568 33.4278 23.4121 31.9446 25.6825C30.402 28.0437 28.7486 29.3564 26.367 30.6657C26.1306 31.9802 25.612 34.4058 24.1415 34.7523C23.2419 34.9643 22.541 33.7281 22.0229 32.8145C21.9242 32.6403 21.823 32.4675 21.7252 32.2928C21.0511 32.4617 20.467 32.6151 20.0013 32.4141C19.5814 32.2328 19.2616 31.7493 18.9229 31.2293ZM26.5553 26.0789C28.7428 24.9151 29.63 22.0275 28.3076 19.737C27.0573 17.5714 24.5274 16.8378 22.1438 18.2139C19.8443 19.5415 19.561 21.9093 20.6242 24.173C21.8836 26.8542 24.4738 27.1863 26.5553 26.0789Z" fill="white"/>
<path d="M7.42729 30.7378C7.70906 31.5665 11.6834 33.2286 13.4449 31.6443C13.4449 31.6443 15.2065 30.06 14.5727 28.1759C13.939 26.2918 12.2404 26.1688 12.2404 26.1688C10.2936 25.91 8.89213 27.2841 8.85742 28.1905C8.84006 28.6437 9.17891 28.672 9.24122 28.8553C9.30352 29.0385 9.37874 29.3459 8.85942 29.7405C8.49011 30.0211 7.31458 30.4063 7.42729 30.7378Z" fill="white"/>
</svg>
